<?xml version="1.0" standalone="no"?>
<!DOCTYPE svg PUBLIC "-//W3C//DTD SVG 20010904//EN"
 "http://www.w3.org/TR/2001/REC-SVG-20010904/DTD/svg10.dtd">
<svg version="1.0" xmlns="http://www.w3.org/2000/svg"
 width="128.000000pt" height="128.000000pt" viewBox="0 0 128.000000 128.000000"
 preserveAspectRatio="xMidYMid meet">

<g transform="translate(0.000000,128.000000) scale(0.100000,-0.100000)"
fill="#000000" stroke="none">
<path d="M523 1241 c-64 -24 -98 -47 -148 -102 -63 -70 -80 -119 -80 -229 1
-85 4 -100 28 -141 15 -25 27 -54 27 -63 0 -28 36 -73 151 -188 87 -87 104
-110 93 -119 -20 -16 -17 -37 5 -44 15 -4 20 -20 26 -88 4 -45 8 -114 9 -154
2 -81 10 -99 27 -57 10 28 8 83 -7 196 -8 60 1 95 26 103 25 8 26 31 3 44 -16
9 -13 15 27 47 154 127 237 249 260 384 29 171 -54 338 -198 403 -67 29 -181
33 -249 8z m214 -87 c46 -20 111 -80 134 -127 27 -53 31 -150 6 -155 -19 -4
-20 -2 -37 83 -10 50 -20 67 -55 101 -26 25 -63 48 -94 59 -55 18 -66 28 -57
51 7 17 42 13 103 -12z"/>
</g>
</svg>
